<mxfile modified="2023-07-22T15:42:40.215Z" host="app.diagrams.net" agent="Mozilla/5.0 (Windows NT 10.0; Win64; x64) AppleWebKit/537.36 (KHTML, like Gecko) Chrome/114.0.0.0 Safari/537.36" etag="3VKkD5f5W-QsQZdl6B2g" version="21.6.5" type="github">
  <diagram id="Ht1M8jgEwFfnCIfOTk4-" name="Page-1">
    <mxGraphModel dx="1195" dy="657" grid="1" gridSize="10" guides="1" tooltips="1" connect="1" arrows="1" fold="1" page="1" pageScale="1" pageWidth="1169" pageHeight="827" math="0" shadow="0">
      <root>
        <mxCell id="0" />
        <mxCell id="1" parent="0" />
        <mxCell id="yVkXxg63BZ7VD3meYh8e-27" value="MIXER&lt;br&gt;" style="sketch=0;points=[[0,0,0],[0.25,0,0],[0.5,0,0],[0.75,0,0],[1,0,0],[0,1,0],[0.25,1,0],[0.5,1,0],[0.75,1,0],[1,1,0],[0,0.25,0],[0,0.5,0],[0,0.75,0],[1,0.25,0],[1,0.5,0],[1,0.75,0]];outlineConnect=0;fontColor=#232F3E;gradientColor=#F78E04;gradientDirection=north;fillColor=#D05C17;strokeColor=#ffffff;dashed=0;verticalLabelPosition=bottom;verticalAlign=top;align=center;html=1;fontSize=12;fontStyle=0;aspect=fixed;shape=mxgraph.aws4.resourceIcon;resIcon=mxgraph.aws4.batch;movable=1;resizable=1;rotatable=1;deletable=1;editable=1;locked=0;connectable=1;" vertex="1" parent="1">
          <mxGeometry x="610" y="250" width="78" height="78" as="geometry" />
        </mxCell>
        <mxCell id="UEzPUAAOIrF-is8g5C7q-110" value="USER" style="outlineConnect=0;gradientColor=none;fontColor=#545B64;strokeColor=none;fillColor=#879196;dashed=0;verticalLabelPosition=bottom;verticalAlign=top;align=center;html=1;fontSize=12;fontStyle=0;aspect=fixed;shape=mxgraph.aws4.illustration_notification;pointerEvents=1;labelBackgroundColor=#ffffff;" parent="1" vertex="1">
          <mxGeometry x="110" y="341.5" width="100" height="81" as="geometry" />
        </mxCell>
        <object label="API&amp;nbsp;" Text="qwerqwerqwrq" id="yVkXxg63BZ7VD3meYh8e-3">
          <mxCell style="sketch=0;points=[[0,0,0],[0.25,0,0],[0.5,0,0],[0.75,0,0],[1,0,0],[0,1,0],[0.25,1,0],[0.5,1,0],[0.75,1,0],[1,1,0],[0,0.25,0],[0,0.5,0],[0,0.75,0],[1,0.25,0],[1,0.5,0],[1,0.75,0]];outlineConnect=0;gradientColor=#FF4F8B;gradientDirection=north;fillColor=#BC1356;strokeColor=#ffffff;dashed=0;verticalLabelPosition=bottom;verticalAlign=top;align=center;aspect=fixed;shape=mxgraph.aws4.resourceIcon;resIcon=mxgraph.aws4.api_gateway;horizontal=1;html=1;" vertex="1" parent="1">
            <mxGeometry x="349.5" y="250" width="78" height="78" as="geometry" />
          </mxCell>
        </object>
        <mxCell id="yVkXxg63BZ7VD3meYh8e-8" value="" style="endArrow=classic;html=1;rounded=0;entryX=0;entryY=0.5;entryDx=0;entryDy=0;entryPerimeter=0;edgeStyle=orthogonalEdgeStyle;startArrow=classic;startFill=1;" edge="1" parent="1" source="UEzPUAAOIrF-is8g5C7q-110" target="yVkXxg63BZ7VD3meYh8e-3">
          <mxGeometry width="50" height="50" relative="1" as="geometry">
            <mxPoint x="509.5" y="320" as="sourcePoint" />
            <mxPoint x="559.5" y="270" as="targetPoint" />
          </mxGeometry>
        </mxCell>
        <mxCell id="yVkXxg63BZ7VD3meYh8e-17" value="SQL LOCAL" style="sketch=0;points=[[0,0,0],[0.25,0,0],[0.5,0,0],[0.75,0,0],[1,0,0],[0,1,0],[0.25,1,0],[0.5,1,0],[0.75,1,0],[1,1,0],[0,0.25,0],[0,0.5,0],[0,0.75,0],[1,0.25,0],[1,0.5,0],[1,0.75,0]];outlineConnect=0;fontColor=#232F3E;gradientColor=#945DF2;gradientDirection=north;fillColor=#5A30B5;strokeColor=#ffffff;dashed=0;verticalLabelPosition=bottom;verticalAlign=top;align=center;html=1;fontSize=12;fontStyle=0;aspect=fixed;shape=mxgraph.aws4.resourceIcon;resIcon=mxgraph.aws4.sql_workbench;" vertex="1" parent="1">
          <mxGeometry x="349.5" y="460" width="78" height="78" as="geometry" />
        </mxCell>
        <mxCell id="yVkXxg63BZ7VD3meYh8e-20" value="" style="endArrow=classic;html=1;rounded=0;entryX=0.5;entryY=0;entryDx=0;entryDy=0;entryPerimeter=0;exitX=1;exitY=0.75;exitDx=0;exitDy=0;exitPerimeter=0;edgeStyle=orthogonalEdgeStyle;startArrow=classic;startFill=1;" edge="1" parent="1" source="yVkXxg63BZ7VD3meYh8e-3" target="yVkXxg63BZ7VD3meYh8e-17">
          <mxGeometry width="50" height="50" relative="1" as="geometry">
            <mxPoint x="559.5" y="270" as="sourcePoint" />
            <mxPoint x="509.5" y="320" as="targetPoint" />
          </mxGeometry>
        </mxCell>
        <mxCell id="yVkXxg63BZ7VD3meYh8e-23" value="" style="edgeStyle=orthogonalEdgeStyle;orthogonalLoop=2;jettySize=auto;html=1;rounded=0;exitX=1;exitY=0.5;exitDx=0;exitDy=0;exitPerimeter=0;startArrow=classic;startFill=1;entryX=0.5;entryY=0;entryDx=0;entryDy=0;entryPerimeter=0;" edge="1" parent="1" source="yVkXxg63BZ7VD3meYh8e-3" target="yVkXxg63BZ7VD3meYh8e-47">
          <mxGeometry width="80" relative="1" as="geometry">
            <mxPoint x="529.5" y="300" as="sourcePoint" />
            <mxPoint x="488" y="420.02067327839086" as="targetPoint" />
          </mxGeometry>
        </mxCell>
        <mxCell id="yVkXxg63BZ7VD3meYh8e-24" value="FIREBASE&lt;br&gt;" style="outlineConnect=0;dashed=0;verticalLabelPosition=bottom;verticalAlign=top;align=center;html=1;shape=mxgraph.aws3.vpc_peering;fillColor=#F58534;gradientColor=none;" vertex="1" parent="1">
          <mxGeometry x="360" y="100" width="69" height="72" as="geometry" />
        </mxCell>
        <mxCell id="yVkXxg63BZ7VD3meYh8e-25" value="" style="endArrow=classic;startArrow=classic;html=1;rounded=0;entryX=1;entryY=0.5;entryDx=0;entryDy=0;entryPerimeter=0;exitX=0.5;exitY=0;exitDx=0;exitDy=0;exitPerimeter=0;edgeStyle=orthogonalEdgeStyle;" edge="1" parent="1" source="yVkXxg63BZ7VD3meYh8e-3" target="yVkXxg63BZ7VD3meYh8e-24">
          <mxGeometry width="50" height="50" relative="1" as="geometry">
            <mxPoint x="509.5" y="320" as="sourcePoint" />
            <mxPoint x="559.5" y="270" as="targetPoint" />
            <Array as="points">
              <mxPoint x="389" y="211" />
              <mxPoint x="450" y="211" />
              <mxPoint x="450" y="136" />
            </Array>
          </mxGeometry>
        </mxCell>
        <mxCell id="yVkXxg63BZ7VD3meYh8e-26" value="" style="endArrow=classic;startArrow=classic;html=1;rounded=0;edgeStyle=orthogonalEdgeStyle;entryX=0;entryY=0.5;entryDx=0;entryDy=0;entryPerimeter=0;dashed=1;dashPattern=8 8;" edge="1" parent="1" source="UEzPUAAOIrF-is8g5C7q-110" target="yVkXxg63BZ7VD3meYh8e-24">
          <mxGeometry width="50" height="50" relative="1" as="geometry">
            <mxPoint x="509.5" y="320" as="sourcePoint" />
            <mxPoint x="170" y="150" as="targetPoint" />
            <Array as="points">
              <mxPoint x="160" y="136" />
            </Array>
          </mxGeometry>
        </mxCell>
        <mxCell id="yVkXxg63BZ7VD3meYh8e-37" value="" style="edgeStyle=orthogonalEdgeStyle;rounded=0;orthogonalLoop=1;jettySize=auto;html=1;entryX=0;entryY=0.5;entryDx=0;entryDy=0;" edge="1" parent="1" source="yVkXxg63BZ7VD3meYh8e-27" target="yVkXxg63BZ7VD3meYh8e-29">
          <mxGeometry relative="1" as="geometry">
            <Array as="points">
              <mxPoint x="720" y="289" />
              <mxPoint x="720" y="289" />
            </Array>
          </mxGeometry>
        </mxCell>
        <mxCell id="yVkXxg63BZ7VD3meYh8e-28" value="" style="edgeStyle=orthogonalEdgeStyle;orthogonalLoop=1;jettySize=auto;html=1;rounded=0;exitX=1;exitY=0.25;exitDx=0;exitDy=0;exitPerimeter=0;entryX=0;entryY=0.5;entryDx=0;entryDy=0;entryPerimeter=0;startArrow=classic;startFill=1;" edge="1" parent="1" source="yVkXxg63BZ7VD3meYh8e-3" target="yVkXxg63BZ7VD3meYh8e-27">
          <mxGeometry width="80" relative="1" as="geometry">
            <mxPoint x="450" y="270" as="sourcePoint" />
            <mxPoint x="530" y="270" as="targetPoint" />
          </mxGeometry>
        </mxCell>
        <mxCell id="yVkXxg63BZ7VD3meYh8e-29" value="WORKERS&lt;br&gt;" style="points=[[0,0],[0.25,0],[0.5,0],[0.75,0],[1,0],[1,0.25],[1,0.5],[1,0.75],[1,1],[0.75,1],[0.5,1],[0.25,1],[0,1],[0,0.75],[0,0.5],[0,0.25]];outlineConnect=0;gradientColor=none;html=1;whiteSpace=wrap;fontSize=12;fontStyle=0;container=1;pointerEvents=0;collapsible=0;recursiveResize=0;shape=mxgraph.aws4.group;grIcon=mxgraph.aws4.group_ec2_instance_contents;strokeColor=#D86613;fillColor=none;verticalAlign=top;align=left;spacingLeft=30;fontColor=#D86613;dashed=0;" vertex="1" parent="1">
          <mxGeometry x="780" y="79" width="200" height="420" as="geometry" />
        </mxCell>
        <mxCell id="yVkXxg63BZ7VD3meYh8e-32" value="NODE_1" style="outlineConnect=0;dashed=0;verticalLabelPosition=middle;verticalAlign=middle;align=left;html=1;shape=mxgraph.aws3.ec2;fillColor=#F58534;gradientColor=none;horizontal=1;labelPosition=right;" vertex="1" parent="yVkXxg63BZ7VD3meYh8e-29">
          <mxGeometry x="50" y="30.5" width="60" height="69" as="geometry" />
        </mxCell>
        <mxCell id="yVkXxg63BZ7VD3meYh8e-33" value="NODE_2" style="outlineConnect=0;dashed=0;verticalLabelPosition=middle;verticalAlign=middle;align=left;html=1;shape=mxgraph.aws3.ec2;fillColor=#F58534;gradientColor=none;horizontal=1;labelPosition=right;" vertex="1" parent="yVkXxg63BZ7VD3meYh8e-29">
          <mxGeometry x="50" y="110.5" width="60" height="69" as="geometry" />
        </mxCell>
        <mxCell id="yVkXxg63BZ7VD3meYh8e-34" value="NODE_3" style="outlineConnect=0;dashed=0;verticalLabelPosition=middle;verticalAlign=middle;align=left;html=1;shape=mxgraph.aws3.ec2;fillColor=#F58534;gradientColor=none;horizontal=1;labelPosition=right;" vertex="1" parent="yVkXxg63BZ7VD3meYh8e-29">
          <mxGeometry x="50" y="190.5" width="60" height="69" as="geometry" />
        </mxCell>
        <mxCell id="yVkXxg63BZ7VD3meYh8e-35" value="NODE_N" style="outlineConnect=0;dashed=0;verticalLabelPosition=middle;verticalAlign=middle;align=left;html=1;shape=mxgraph.aws3.ec2;fillColor=#F58534;gradientColor=none;horizontal=1;labelPosition=right;" vertex="1" parent="yVkXxg63BZ7VD3meYh8e-29">
          <mxGeometry x="50" y="320.5" width="60" height="69" as="geometry" />
        </mxCell>
        <mxCell id="yVkXxg63BZ7VD3meYh8e-36" value="" style="endArrow=none;dashed=1;html=1;dashPattern=1 3;strokeWidth=2;rounded=0;" edge="1" parent="yVkXxg63BZ7VD3meYh8e-29">
          <mxGeometry width="50" height="50" relative="1" as="geometry">
            <mxPoint x="79.83000000000004" y="270.5" as="sourcePoint" />
            <mxPoint x="79.83000000000004" y="310.5" as="targetPoint" />
            <Array as="points">
              <mxPoint x="79.83000000000004" y="290.5" />
            </Array>
          </mxGeometry>
        </mxCell>
        <mxCell id="yVkXxg63BZ7VD3meYh8e-42" value="NODE MANAGER&lt;br&gt;" style="sketch=0;points=[[0,0,0],[0.25,0,0],[0.5,0,0],[0.75,0,0],[1,0,0],[0,1,0],[0.25,1,0],[0.5,1,0],[0.75,1,0],[1,1,0],[0,0.25,0],[0,0.5,0],[0,0.75,0],[1,0.25,0],[1,0.5,0],[1,0.75,0]];points=[[0,0,0],[0.25,0,0],[0.5,0,0],[0.75,0,0],[1,0,0],[0,1,0],[0.25,1,0],[0.5,1,0],[0.75,1,0],[1,1,0],[0,0.25,0],[0,0.5,0],[0,0.75,0],[1,0.25,0],[1,0.5,0],[1,0.75,0]];outlineConnect=0;fontColor=#232F3E;gradientColor=#F34482;gradientDirection=north;fillColor=#BC1356;strokeColor=#ffffff;dashed=0;verticalLabelPosition=top;verticalAlign=bottom;align=center;html=1;fontSize=12;fontStyle=0;aspect=fixed;shape=mxgraph.aws4.resourceIcon;resIcon=mxgraph.aws4.systems_manager;labelPosition=center;" vertex="1" parent="1">
          <mxGeometry x="610" y="100" width="78" height="78" as="geometry" />
        </mxCell>
        <mxCell id="yVkXxg63BZ7VD3meYh8e-43" value="" style="endArrow=classic;startArrow=classic;html=1;rounded=0;entryX=0.5;entryY=1;entryDx=0;entryDy=0;entryPerimeter=0;exitX=0.5;exitY=0;exitDx=0;exitDy=0;exitPerimeter=0;" edge="1" parent="1" source="yVkXxg63BZ7VD3meYh8e-27" target="yVkXxg63BZ7VD3meYh8e-42">
          <mxGeometry width="50" height="50" relative="1" as="geometry">
            <mxPoint x="490" y="320" as="sourcePoint" />
            <mxPoint x="540" y="270" as="targetPoint" />
          </mxGeometry>
        </mxCell>
        <mxCell id="yVkXxg63BZ7VD3meYh8e-44" value="" style="endArrow=classic;startArrow=classic;html=1;rounded=0;entryX=1;entryY=0.5;entryDx=0;entryDy=0;entryPerimeter=0;exitX=0;exitY=0.25;exitDx=0;exitDy=0;edgeStyle=orthogonalEdgeStyle;" edge="1" parent="1" source="yVkXxg63BZ7VD3meYh8e-29" target="yVkXxg63BZ7VD3meYh8e-42">
          <mxGeometry width="50" height="50" relative="1" as="geometry">
            <mxPoint x="490" y="320" as="sourcePoint" />
            <mxPoint x="540" y="270" as="targetPoint" />
          </mxGeometry>
        </mxCell>
        <mxCell id="yVkXxg63BZ7VD3meYh8e-45" value="" style="endArrow=classic;startArrow=classic;html=1;rounded=0;exitX=1;exitY=0.25;exitDx=0;exitDy=0;exitPerimeter=0;entryX=0.25;entryY=1;entryDx=0;entryDy=0;edgeStyle=orthogonalEdgeStyle;" edge="1" parent="1" source="yVkXxg63BZ7VD3meYh8e-17" target="yVkXxg63BZ7VD3meYh8e-29">
          <mxGeometry width="50" height="50" relative="1" as="geometry">
            <mxPoint x="460" y="320" as="sourcePoint" />
            <mxPoint x="510" y="270" as="targetPoint" />
            <Array as="points">
              <mxPoint x="620" y="480" />
              <mxPoint x="620" y="540" />
              <mxPoint x="830" y="540" />
            </Array>
          </mxGeometry>
        </mxCell>
        <mxCell id="yVkXxg63BZ7VD3meYh8e-46" value="" style="endArrow=classic;startArrow=classic;html=1;rounded=0;edgeStyle=elbowEdgeStyle;entryX=1;entryY=0.5;entryDx=0;entryDy=0;entryPerimeter=0;exitX=-0.004;exitY=0.797;exitDx=0;exitDy=0;exitPerimeter=0;" edge="1" parent="1" source="yVkXxg63BZ7VD3meYh8e-29" target="yVkXxg63BZ7VD3meYh8e-47">
          <mxGeometry width="50" height="50" relative="1" as="geometry">
            <mxPoint x="850" y="512.5" as="sourcePoint" />
            <mxPoint x="526.5000000000002" y="440" as="targetPoint" />
            <Array as="points">
              <mxPoint x="670" y="470" />
            </Array>
          </mxGeometry>
        </mxCell>
        <mxCell id="yVkXxg63BZ7VD3meYh8e-47" value="FTP SERVER&lt;br&gt;" style="outlineConnect=0;dashed=0;verticalLabelPosition=bottom;verticalAlign=top;align=center;html=1;shape=mxgraph.aws3.glacier;fillColor=#E05243;gradientColor=none;" vertex="1" parent="1">
          <mxGeometry x="460" y="335.4999999999999" width="76.5" height="93" as="geometry" />
        </mxCell>
        <mxCell id="yVkXxg63BZ7VD3meYh8e-50" value="" style="endArrow=classic;html=1;rounded=0;entryX=0.5;entryY=0;entryDx=0;entryDy=0;entryPerimeter=0;exitX=0.25;exitY=0;exitDx=0;exitDy=0;edgeStyle=orthogonalEdgeStyle;" edge="1" parent="1" source="yVkXxg63BZ7VD3meYh8e-29" target="yVkXxg63BZ7VD3meYh8e-24">
          <mxGeometry width="50" height="50" relative="1" as="geometry">
            <mxPoint x="570" y="50" as="sourcePoint" />
            <mxPoint x="620" as="targetPoint" />
          </mxGeometry>
        </mxCell>
        <mxCell id="yVkXxg63BZ7VD3meYh8e-54" value="AUDIO COMPUTE&lt;br&gt;" style="points=[[0,0],[0.25,0],[0.5,0],[0.75,0],[1,0],[1,0.25],[1,0.5],[1,0.75],[1,1],[0.75,1],[0.5,1],[0.25,1],[0,1],[0,0.75],[0,0.5],[0,0.25]];outlineConnect=0;gradientColor=none;html=1;whiteSpace=wrap;fontSize=12;fontStyle=0;container=1;pointerEvents=0;collapsible=0;recursiveResize=0;shape=mxgraph.aws4.group;grIcon=mxgraph.aws4.group_on_premise;strokeColor=#5A6C86;fillColor=none;verticalAlign=top;align=left;spacingLeft=30;fontColor=#5A6C86;dashed=0;" vertex="1" parent="1">
          <mxGeometry x="570" y="30" width="460" height="552" as="geometry" />
        </mxCell>
        <mxCell id="yVkXxg63BZ7VD3meYh8e-56" value="" style="shape=curlyBracket;whiteSpace=wrap;html=1;rounded=1;labelPosition=left;verticalLabelPosition=middle;align=right;verticalAlign=middle;" vertex="1" parent="yVkXxg63BZ7VD3meYh8e-54">
          <mxGeometry x="230" y="113.75" width="50" height="290.5" as="geometry" />
        </mxCell>
      </root>
    </mxGraphModel>
  </diagram>
</mxfile>
